<?xml version="1.0" encoding="UTF-8"?><svg id="b" xmlns="http://www.w3.org/2000/svg" width="158.778" height="438.476" viewBox="0 0 158.778 438.476"><defs><style>.f{fill:#bdbdbd;}.g{fill:#d9d9d9;}.h{fill:#fff;}.i{fill:#f9cbac;}.j{fill:#3777b0;}.k{fill:#5394cf;}.l{fill:#fce0cd;}.m{fill:#efc0a0;}.n{fill:#645d5c;}</style></defs><g id="c"><g id="d"><path class="n" d="M76.451,90.297c-5.891-.756-12.187-3.99-14.434-8.079-2.953-5.374-3.086-12.152-1.757-18.122,1.329-5.97,3.581-11.755,4.273-17.828.352-3.084.296-6.209.773-9.277.472-3.04,1.442-28.403,20.359-33.88,4.791-1.698,9.521-3.42,14.599-3.061,2.427.172,6.201.355,8.523,1.071,6.208,1.915,11.083,4.528,15.333,9.382,2.795,3.192,5.225,7.144,6.715,11.096,4.595,12.188,6.883,25.51,7.683,38.488.265,4.303.312,8.669-.674,12.869-.986,4.2-3.09,8.722-6.504,11.416-5.092,4.019-7.428,4.945-13.948,5.171l-40.942.756Z"/><path class="l" d="M124.656,406.357c.68-.419,1.239-1.073,1.536-1.807-.892-2.208-1.512-4.524-1.839-6.883-6.255.499-11.838.598-17.993.309-.01,1.455-.02,2.911-.03,4.366,3.446,2.765,8.595,5.031,14.265,4.932,1.405-.024,2.865-.18,4.061-.917Z"/><path class="l" d="M77.462,397.798c-.346,2.413-.998,4.78-1.934,7.031.317.62.825,1.163,1.418,1.528,1.197.737,2.656.893,4.061.917,5.798.101,11.053-2.27,14.497-5.12-.01-1.426-.02-2.853-.029-4.279-6.287.37-11.884.341-18.013-.078Z"/><path class="g" d="M99.974,189.949h-32.182c-1.4,4.843-3.153,13.086-4.292,19.537-5.485,31.082-.183,62.809,2.197,93.229,2.468,31.549,3.977,63.098,6.445,94.647,9.903.969,17.703,1.037,27.822.201,10.129.836,17.931.768,27.838-.201,2.468-31.549,3.977-63.098,6.445-94.647,2.38-30.419,7.682-62.147,2.197-93.229-1.138-6.45-2.891-14.691-4.291-19.537h-32.18Z"/><path class="f" d="M98.801,247.42c-.428,4.528-.377,9.122-.413,13.664-.052,6.586-.025,13.172.016,19.758.058,9.373.165,18.744.15,28.117-.016,10.356-.043,20.713-.062,31.069-.022,11.625-.043,23.25-.035,34.875.003,4.204.007,8.407.031,12.611.011,2.013-.071,4.063.084,6.073.043.564.125,1.222.61,1.605.847.669,2.002.826,2.828,0,.695-.695.852-2.155,0-2.828.356.282.587,1.122.565,1.276.012-.089-.014-.194-.015-.284-.004-.311-.018-.622-.025-.933-.022-1.122-.03-2.244-.039-3.365-.029-3.859-.034-7.717-.038-11.576-.013-11.325.006-22.65.026-33.974.019-10.702.046-21.405.065-32.107.015-8.663-.05-17.324-.115-25.987-.089-11.891-.402-23.851.209-35.732.039-.754.086-1.508.157-2.26.102-1.077-.992-2-2-2-1.166,0-1.898.92-2,2h0Z"/><path class="k" d="M81.662,158.252l-.137,29.263c-.281,5.976-.556,11.149-.683,15.059-.053.516-.019,2.598-.414,2.593-4.689-.067-13.527-2.208-17.509-4.686,0-16.384,3.383-26.308,3.152-36.798-5.441-9.237-23.005-34.98-23.005-34.98.222-3.762,5.415-13.553,5.863-14.638l.884-1.461c2.24-3.704,5.828-6.372,9.449-8.744,6.791-4.449,12.192-7.561,19.754-10.568.236,4.152,1.859,21.034,2.755,41.512l-.109,23.45Z"/><path class="h" d="M114.965,97.86c1.881-.964,3.799-2.154,5.808-3.599-.664,6.737-4.71,30.302-5.179,55.104-.27,14.281-.314,29.18-.197,40.585h-33.988c.038-.791.077-1.604.116-2.434l.303-51.849c-.878-20.069-2.51-37.52-2.802-42.101,7.983,7.774,13.788,7.749,21.345,7.749,5.208,0,9.776-.986,14.593-3.455Z"/><path class="l" d="M65.975,57.719c.058.124.118.248.179.371.685,1.377,1.578,2.696,2.819,3.699.953.76,2.12,1.324,3.361,1.515,0,0,.41.063,1.096.169.972,3.437,2.627,7.341,5.558,10.849,2.067,2.473,4.332,4.471,6.769,5.907-.033,2.28-.257,3.903-.651,6.149-.381,2.176-.262,4.122-3.288,5.215-.2.072-1.531.754-2.264.98l-1.174.362c.328.319.656.638.656.638,7.979,7.765,13.782,7.741,21.336,7.741,7.438,0,13.572-2.011,20.99-7.484-.52-.25-.882-.421-.882-.421-1.53-.72-3.48-1.74-3.68-1.82-3.02-1.09-2.9-3.04-3.28-5.21-.35-1.992-.58-3.373-.65-5.256,4.708-2.132,8.786-7.052,11.277-10.885,2.316-10.016.691-20.43-3.683-29.696-2.27-4.808-5.424-9.278-9.608-12.613s-9.389-7.08-15.563-5.47c-1.736,2.086-20.385,20.14-22.774,22.007l-1.411,1.103c-.873-.667-2.068-.977-3.192-.809-1.229.184-2.348.925-2.91,1.935-.397.708-.526,1.515-.599,2.302-.257,2.967.291,5.989,1.569,8.72Z"/><path class="k" d="M136.621,200.332c-3.981,2.478-15.88,4.768-20.569,4.835-.395.006-.36-2.077-.414-2.593-.354-10.88-.432-32.684-.044-53.21.492-26.025,4.923-50.688,5.244-55.993.504.284.871.487.871.487,9.677,5.345,20.976,12.738,26.291,22.479,6.355,12.365,9.552,32.091,10.409,40.031.48,4.448.536,8.412-.088,13.919-2.289,11.788-15.484,8.952-19.474,8.817-.919-.031-2.41-.227-4.289-.546.526,3.431,2.064,14.51,2.064,21.774"/><path class="f" d="M103.966,163.817c-7.228,5.645-18.167,13.921-21.595,16.238-.548.371-3.463.741-4.37.87.328-.314-.185-17.148-1.667-25.296,14.519,2.815,30.608,5.844,30.608,5.844-.882.702-1.887,1.493-2.976,2.343Z"/><path class="j" d="M135.5,154.61c.204-7.299.527-14.639,1.22-21.91.103-1.077-.993-2-2-2-1.167,0-1.897.92-2,2-.693,7.271-1.016,14.611-1.22,21.91-.072,2.575,3.928,2.573,4,0h0Z"/><path class="l" d="M114.002,156.359c-4.507-1.982-9.146-3.662-13.878-5.021-1.369-2.37-2.737-4.741-4.106-7.111-.714-1.236-1.481-2.528-2.715-3.246-1.21-.704-2.679-.747-4.078-.772-5.393-.094-9.521.323-15.483,2.384.231,1.403,2.43,13.876,2.741,16.222,3.552,0,6.815.089,8.316.089,2.025,2.233,4.626,3.705,8.254,2.451,2.455.544,4.804,1.648,7.092,2.735,3.287,1.563,6.575,3.125,9.862,4.688"/><path class="k" d="M105.071,150.924c-1.175,6.051-4.944,16.078-6.159,18.237,1.483,1.404,15.993,5.48,27.388,8.125,1.855-9.204,4.597-22.801,4.597-22.801-3.243-1.168-25.688-6.841-25.473-6.503,0,.782-.13,1.79-.354,2.942Z"/><path class="j" d="M118.395,153.151c3.688.96,7.4,1.888,11.033,3.045,1.665.53,3.53.426,5.263.409,2.05-.02,4.099-.118,6.149-.125,2.573-.008,2.578-4.008,0-4-1.933.006-3.864.094-5.796.121-1.648.022-3.393.102-4.734-.32-3.577-1.124-7.224-2.043-10.851-2.987-2.493-.649-3.556,3.208-1.063,3.857h0Z"/><path class="g" d="M68.253,124.605c-11.305-.786-48.126-2.674-64.608-3.013-2.201-.045-3.918,1.893-3.609,4.073,2.322,16.374,5.018,32.695,8.085,48.946.304,1.61,1.665,2.806,3.301,2.9,19.509,1.124,52.859,3.046,64.861,3.736,2.29.131,4.103-1.897,3.718-4.158-2.593-15.235-7.031-41.112-8.474-49.528-.278-1.624-1.63-2.84-3.274-2.954Z"/><path class="l" d="M41.836,185.074c-.858,0-1.65-.018-2.352-.074-2.539-.278-3.965-.778-5.909-2.231-3.345-2.5-4.426-6.398-4.774-9.062s-.887-9.15-1.054-10.865c-.088-.902.911-3.126,2.711-3.301,2.16-.21,3.239.991,3.895,1.861l.301.399c-.103-1.13-.207-2.261-.207-2.261-.054-.595.079-4.06,2.783-4.428,2.979-.406,4.229,1.47,4.471,3.245l.314,2.302c.303-.443.606-.887.606-.887.768-1.123,2.215-1.644,3.479-1.253,1.425.441,2.608,1.867,2.823,3.441.342,2.51.967,6.633,1.296,9.581,1.179-3.075,3.897-3.484,5.449-2.429,1.393.947,1.112,3.037.889,4.074-.583,2.713-1.356,4.407-2.37,7.185,0,0-.889,1.852-1.926,2.963s-3.704,1.63-3.704,1.63c-2.382,0-4.728.109-6.72.111Z"/><path class="i" d="M40.261,162.47c.305,2.24.61,4.48.915,6.719.063.459.541.974.919,1.195.429.251,1.061.357,1.541.202.484-.157.951-.457,1.195-.919.269-.51.279-.976.202-1.541-.305-2.24-.61-4.48-.915-6.719-.063-.459-.541-.974-.919-1.195-.429-.251-1.061-.357-1.541-.202-.484.157-.951.457-1.195.919-.269.51-.279.976-.202,1.541h0Z"/><path class="i" d="M37.783,169.839c-.083-.512-.155-1.027-.227-1.541-.05-.36-.1-.719-.149-1.079-.03-.218-.059-.436-.089-.654.012.085.059.439.022.161-.017-.126-.034-.252-.05-.378-.224-1.687-.442-3.374-.646-5.064-.125-1.035-.83-2.052-2-2-.976.044-2.134.888-2,2,.387,3.208.763,6.428,1.283,9.618.169,1.036,1.509,1.705,2.46,1.397,1.122-.363,1.578-1.35,1.397-2.46h0Z"/><path class="n" d="M56.071,434.239c-.11-.144-.214-.293-.312-.446-1.301-2.041-1.302-4.704-.553-7.006s2.165-4.32,3.595-6.273c3.47-4.739,7.141-9.329,11-13.756,1.506-1.728,3.209-3.528,5.461-3.953-.364,1.357.487,2.816,1.684,3.553s2.657.893,4.061.917c6.571.114,12.447-2.945,15.777-6.279-.026,4.746.021,6.326,0,11.073-.005,1.156-.015,2.34-.416,3.424-.976,2.639-3.869,3.91-6.191,5.499-6.041,4.134-9.222,11.676-15.552,15.351-4.537,2.635-10.394,2.845-15.108.541-1.313-.641-2.564-1.491-3.446-2.646Z"/><path class="n" d="M145.531,434.239c.11-.144.214-.293.312-.446,1.301-2.041,1.302-4.704.553-7.006-.749-2.302-2.165-4.32-3.595-6.273-3.47-4.739-7.141-9.329-11-13.756-1.506-1.728-3.209-3.528-5.461-3.953.364,1.357-.487,2.816-1.684,3.553s-2.657.893-4.061.917c-6.571.114-12.447-2.945-15.777-6.279.026,4.746-.021,6.326,0,11.073.005,1.156.015,2.34.416,3.424.976,2.639,3.869,3.91,6.191,5.499,6.041,4.134,9.222,11.676,15.552,15.351,4.537,2.635,10.394,2.845,15.108.541,1.313-.641,2.564-1.491,3.446-2.646Z"/><g id="e"><path class="m" d="M94.757,69.395c1.815.958,3.767,1.372,5.82,1.358,2.16-.014,4.264-.472,5.985-1.812.829-.646.729-2.159,0-2.828-.88-.807-1.944-.689-2.828,0,.691-.538-.025-.012-.243.103-.169.089-.622.23.009.016-.159.054-.312.12-.472.172-.424.136-.911.15-1.322.302.211-.078.323-.039.024-.009-.13.013-.259.024-.389.032-.313.02-.626.028-.939.026-.281-.002-.561-.011-.841-.03-.129-.009-.257-.019-.385-.032-.073-.007-.146-.015-.219-.024-.157-.019-.096-.011.183.024-.049.051-.552-.1-.633-.118-.202-.045-.403-.097-.602-.156-.173-.052-.342-.114-.512-.172-.449-.154.421.201.014.009-.212-.1-.42-.204-.627-.313-.925-.488-2.217-.265-2.736.718-.488.924-.27,2.215.718,2.736h0Z"/><path class="m" d="M99.304,56.016c.241.92.473,1.855.611,2.798l-.071-.532c.016.129.024.256.01.386l.071-.532c-.009.06-.022.116-.042.174l.202-.478c-.018.041-.037.075-.061.112l.313-.405c-.029.035-.056.062-.091.09l.405-.313c-.071.045-.145.082-.222.117l.478-.202c-.122.051-.243.088-.374.109l.532-.071c-.118.014-.233.013-.351,0l.532.071c-.132-.018-.262-.051-.394-.068-.266-.083-.532-.095-.798-.036-.266.012-.514.091-.744.237-.415.243-.811.718-.919,1.195-.117.512-.091,1.087.202,1.541.26.403.695.852,1.195.919.351.047.692.135,1.049.151.575.025,1.1-.156,1.61-.392.643-.298,1.149-.908,1.32-1.598.146-.591.087-1.065-.013-1.658-.152-.901-.361-1.795-.592-2.679-.127-.483-.49-.944-.919-1.195s-1.061-.357-1.541-.202c-.484.157-.951.457-1.195.919-.253.48-.342,1.007-.202,1.541h0Z"/><path class="n" d="M85.057,47.943c-.467,1.518-.163,5.011,2.714,5.308,3.802-.023,4.004-4.245,2.724-6.231-1.048-1.626-4.129-2.302-5.438.923Z"/><path class="n" d="M115.5,47.943c.467,1.518.163,5.011-2.713,5.308-3.802-.023-4.004-4.245-2.724-6.231,1.048-1.625,4.129-2.301,5.438.923Z"/></g></g></g></svg>