<svg width="160" height="160" viewBox="0 0 160 160" fill="none" xmlns="http://www.w3.org/2000/svg">
<path d="M29.51 136.005L18.28 10H141.72L130.475 135.985L79.925 150L29.51 136.005Z" fill="#1572B6"/>
<path d="M80 139.29L120.85 127.965L130.46 20.3049H80V139.29Z" fill="#33A9DC"/>
<path d="M80 65.955H100.45L101.86 50.13H80V34.675H118.75L118.38 38.82L114.585 81.41H80V65.955Z" fill="white"/>
<path d="M80.095 106.09L80.025 106.11L62.815 101.46L61.715 89.135H46.2L48.365 113.4L80.02 122.19L80.095 122.17V106.09Z" fill="#EBEBEB"/>
<path d="M99.135 80.7549L97.275 101.45L80.04 106.1V122.18L111.72 113.4L111.955 110.79L114.64 80.7549H99.135Z" fill="white"/>
<path d="M80.055 34.675V50.13H42.725L42.415 46.6551L41.71 38.82L41.34 34.675H80.055ZM80 65.955V81.41H63.005L62.695 77.9351L61.995 70.1001L61.625 65.955H80Z" fill="#EBEBEB"/>
</svg>
