<svg width="160" height="160" viewBox="0 0 160 160" fill="none" xmlns="http://www.w3.org/2000/svg">
<path d="M52.5641 160C67.7087 160 80 148.053 80 133.333V106.667H52.5641C37.4195 106.667 25.1282 118.613 25.1282 133.333C25.1282 148.053 37.4195 160 52.5641 160Z" fill="#0ACF83"/>
<path d="M25.1282 79.9999C25.1282 65.2799 37.4195 53.3333 52.5641 53.3333H80V106.667H52.5641C37.4195 106.667 25.1282 94.7199 25.1282 79.9999Z" fill="#A259FF"/>
<path d="M25.1282 26.6667C25.1282 11.9467 37.4195 0 52.5641 0H80V53.3333H52.5641C37.4195 53.3333 25.1282 41.3867 25.1282 26.6667Z" fill="#F24E1E"/>
<path d="M80 0H107.436C122.581 0 134.872 11.9467 134.872 26.6667C134.872 41.3867 122.581 53.3333 107.436 53.3333H80V0Z" fill="#FF7262"/>
<path d="M134.872 79.9999C134.872 94.7199 122.581 106.667 107.436 106.667C92.2913 106.667 80 94.7199 80 79.9999C80 65.2799 92.2913 53.3333 107.436 53.3333C122.581 53.3333 134.872 65.2799 134.872 79.9999Z" fill="#1ABCFE"/>
</svg>
