<svg width="160" height="160" viewBox="0 0 160 160" fill="none" xmlns="http://www.w3.org/2000/svg">
<path d="M29.51 136.005L18.275 10H141.725L130.475 135.985L79.925 150L29.51 136.005Z" fill="#E44F26"/>
<path d="M80 139.29L120.85 127.965L130.46 20.3049H80V139.29Z" fill="#F1662A"/>
<path d="M80 67.0349H59.55L58.14 51.2099H80V35.7549H41.25L41.62 39.9049L45.415 82.4899H80V67.0349ZM80 107.17L79.93 107.19L62.72 102.545L61.62 90.2199H46.105L48.27 114.48L79.93 123.27L80 123.25V107.17Z" fill="#EBEBEB"/>
<path d="M79.945 67.0349V82.4899H98.975L97.185 102.535L79.945 107.185V123.265L111.63 114.48L111.86 111.87L115.49 71.1849L115.87 67.0349H79.945ZM79.945 35.7549V51.2099H117.275L117.585 47.7399L118.29 39.9049L118.66 35.7549H79.945Z" fill="white"/>
</svg>
