<svg width="160" height="160" viewBox="0 0 160 160" fill="none" xmlns="http://www.w3.org/2000/svg">
<g clip-path="url(#clip0_212_886)">
<path d="M88.6733 37.34C84.4867 27.1533 85.0734 15.6933 91.12 6.47333L95.64 0C87.28 15.6667 95.24 34.9067 108.04 44.9933C111.465 47.6741 115.283 49.8103 119.36 51.3267C120.453 51.7267 121.693 52.1533 122.827 52.44C137.133 56.04 148.793 53.5533 155.733 43.18C155.52 43.5 155.247 44.0067 154.9 44.6467C151.807 50.38 142.753 67.16 116.5 61.8933C116 61.7933 115.52 61.6267 115.04 61.4733L114.613 61.3267L114.307 61.2267C114.165 61.1777 114.023 61.1311 113.88 61.0867C113.491 60.9528 113.104 60.8128 112.72 60.6667C102.153 56.64 93.0933 48.16 88.6733 37.34Z" fill="#21609B"/>
<path d="M54.1333 19.7733C43.8867 35.0733 44.4467 55.5599 52.44 71.7466C53.918 74.7586 55.6159 77.6575 57.52 80.4199C58.9133 82.5066 60.4467 84.8199 62.24 86.4333C62.98 87.2799 63.7533 88.0999 64.54 88.9066L64.9933 89.3733L65.1467 89.5266C65.9426 90.3312 66.7584 91.1159 67.5933 91.8799L67.6 91.8866L67.6133 91.8999C68.6211 92.8117 69.6548 93.6943 70.7133 94.5466L70.98 94.7599C71.9133 95.5066 72.8667 96.2399 73.8467 96.9399L73.8867 96.9666L73.9333 96.9999C74.2467 97.2266 74.5667 97.4466 74.8867 97.6599L75.24 97.8999C75.4492 98.0384 75.6559 98.1806 75.86 98.3266C76.56 98.7933 77.2667 99.2399 77.9867 99.6799L78.1867 99.7933L78.2867 99.8599C79.0587 100.32 79.8389 100.767 80.6267 101.2L80.8333 101.307L81.1 101.453C81.4467 101.64 81.7933 101.833 82.1533 102.013L82.3533 102.113C83.3846 102.638 84.4294 103.136 85.4867 103.607L85.7 103.693C86.6923 104.13 87.6948 104.544 88.7067 104.933L88.9067 105.007C89.5933 105.273 90.28 105.513 90.9733 105.753L91.32 105.873L91.9067 106.067C92.1667 106.147 92.4267 106.24 92.68 106.327C93.4067 106.58 94.1333 106.827 94.8933 106.96C147.787 116.053 160 73.7866 160 73.7866C148.993 90.2399 127.673 98.0933 104.927 91.9599C103.919 91.6846 102.919 91.3845 101.927 91.0599C101.658 90.9771 101.391 90.8881 101.127 90.7933L101.027 90.7599C100.324 90.5243 99.6264 90.2753 98.9333 90.0133L98.9133 89.9999C97.763 89.5646 96.6248 89.0977 95.5 88.5999L95.1267 88.4333C93.8159 87.8407 92.5262 87.2025 91.26 86.5199L90.98 86.3733L90.18 85.9466C89.4496 85.5385 88.7272 85.1162 88.0133 84.6799C86.6032 83.8187 85.2245 82.9071 83.88 81.9466C82.909 81.2457 81.9554 80.521 81.02 79.7733L80.7867 79.5799C80.6504 79.4697 80.5149 79.3586 80.38 79.2466C70.42 71.0866 62.5267 59.9333 58.78 47.2933C54.8467 34.1733 55.6933 19.4533 62.5067 7.50659L54.1333 19.7733Z" fill="#21609B"/>
<path d="M10.16 37.58C-4 58.7134 -2.24 86.2133 8.58 108.667C8.78 109.1 9 109.527 9.21334 109.947L9.37334 110.267L9.57334 110.66C9.74102 111.01 9.91887 111.354 10.1067 111.693L10.1933 111.86L10.66 112.727L10.76 112.907C11.0933 113.52 11.44 114.133 11.7933 114.747L11.9067 114.947C12.4409 115.879 12.9989 116.797 13.58 117.7L13.7 117.9L14.0933 118.52C14.6533 119.387 15.2267 120.26 15.8267 121.12V121.127C15.8409 121.148 15.8565 121.168 15.8733 121.187L16.0333 121.407L16.1667 121.593C16.6867 122.327 17.2133 123.06 17.7533 123.78L18.3533 124.567C19.6601 126.26 21.0117 127.918 22.4067 129.54L22.4467 129.587L22.48 129.62L22.5267 129.673C23.941 131.267 25.4039 132.816 26.9133 134.32L27.1133 134.52L27.5867 134.987C28.3422 135.725 29.1112 136.45 29.8933 137.16L30.1133 137.36L30.2867 137.507C31.121 138.252 31.9655 138.985 32.82 139.707L33.1933 140.02C33.76 140.487 34.3333 140.953 34.9133 141.407L35.8267 142.133C36.4667 142.62 37.1067 143.1 37.7533 143.567L37.86 143.647L38.46 144.087L38.6467 144.22C39.2333 144.647 39.8267 145.047 40.4267 145.447L40.52 145.513C40.789 145.694 41.0557 145.879 41.32 146.067C42.4329 146.797 43.5598 147.506 44.7 148.193L45.06 148.407C46.0694 149.003 47.0896 149.581 48.12 150.14L48.4733 150.333L48.8667 150.547C49.26 150.76 49.6467 150.973 50.0467 151.18L50.2133 151.26L50.4133 151.36L50.64 151.473C50.7733 151.54 50.9133 151.607 51.0533 151.687C51.88 152.093 52.7067 152.493 53.5467 152.887L53.86 153.027L54.0733 153.127C56.1566 154.075 58.276 154.943 60.4267 155.727L60.4933 155.747L60.7733 155.853C62.2932 156.4 63.827 156.907 65.3733 157.373C66.1467 157.633 66.9267 157.887 67.7267 158.04C136.24 171.013 156.14 115.307 156.14 115.307C139.427 137.907 109.76 143.873 81.6467 137.233C80.5889 136.977 79.5434 136.672 78.5133 136.32L77.7267 136.073C76.7133 135.753 75.7067 135.407 74.7067 135.053L74.2933 134.9C73.3933 134.567 72.5133 134.233 71.6267 133.873L70.88 133.567C69.9147 133.171 68.9567 132.758 68.0067 132.327L67.7 132.193C66.7967 131.774 65.8988 131.343 65.0067 130.9L64.7333 130.753C64.5907 130.685 64.4484 130.617 64.3067 130.547L62.88 129.793L62.4267 129.553C62.2783 129.472 62.1294 129.392 61.98 129.313L61.18 128.873C60.42 128.453 59.6733 128.007 58.9267 127.56L58.64 127.393L58.1733 127.127C57.0128 126.411 55.8659 125.673 54.7333 124.913L54.4467 124.713C51.6015 122.816 48.8742 120.748 46.28 118.52C45.4874 117.85 44.7051 117.168 43.9333 116.473L43.8267 116.373C42.8132 115.441 41.8175 114.49 40.84 113.52C40.2754 112.962 39.7198 112.396 39.1733 111.82L38.9467 111.593C38.0832 110.691 37.2386 109.771 36.4133 108.833L36.3733 108.793L36.36 108.773C35.6533 107.973 34.96 107.147 34.28 106.32L33.7333 105.647C33.0355 104.781 32.3531 103.903 31.6867 103.013C31.1 102.213 30.52 101.427 29.9533 100.62C14.3533 78.5267 8.74667 48.0467 21.22 23.02L10.16 37.58Z" fill="#21609B"/>
</g>
<defs>
<clipPath id="clip0_212_886">
<rect width="160" height="160" fill="white"/>
</clipPath>
</defs>
</svg>
