<?xml version="1.0" encoding="UTF-8"?><svg id="b" xmlns="http://www.w3.org/2000/svg" width="226.947" height="241.383" viewBox="0 0 226.947 241.383"><defs><style>.h{fill:#f5f5f5;}.h,.i,.j,.k,.l,.m{stroke-width:0px;}.i{fill:#fce0cd;}.j{fill:#e2e2e2;}.k{fill:#3d8dcc;}.l{fill:#cfcfcf;}.m{fill:#645d5c;}</style></defs><g id="c"><g id="d"><path class="j" d="M0,184.242v-106.281c0-1.429.762-2.75,2-3.464L128.904,1.228c2.667-1.54,6,.385,6,3.464v101.663c0,1.429.762,2.75,2,3.464l88.042,50.831c2.667,1.54,2.667,5.389,0,6.928l-126.904,73.268c-1.238.715-2.762.715-4,0L2,187.706c-1.238-.715-2-2.035-2-3.464Z"/></g><g id="e"><path class="k" d="M174.889,146.934c.667.385.667,1.347,0,1.732l-107.105,61.837-.141-.081-43.482-25.105c-.667-.385-.667-1.347,0-1.732l106.605-61.548c.309-.179.691-.179,1,0l43.123,24.897Z"/></g><g id="f"><path class="h" d="M154.993,164.741l-3.974-2.294c-19.288,11.136-38.577,22.272-57.865,33.409,0,0,41.4,23.902,41.408,23.907,14.609-8.435,45.378-26.199,57.865-33.409,0,0-27.068-15.628-37.434-21.613Z"/></g><g id="g"><path class="h" d="M134.904,10.706V3.065c0-2.356-2.55-3.828-4.591-2.65L1.53,74.768c-.947.547-1.53,1.557-1.53,2.65v105.677c34.626-19.994,100.274-57.896,134.904-77.89V10.706Z"/></g><path class="l" d="M217.612,224.845c.105-.171.193-.345.263-.52.81-2.03.25-4.34-1.38-6.15-1.54-1.72-3.37-3.02-5.42-4.73-.362-.211-.603-.473-.832-.78-.519.225-1.068.364-1.632.395-2.435.135-6.233.068-11.374.065-.382.905-.672,1.59-.672,1.59-.41.97-.08,2.9.39,3.98.72,1.64,1.97,3.26,3.59,4.4,2.36,1.65,4.75,3.16,7.47,4.18,1.02.38,3.14.66,5.33.49,1.437-.277,3.399-1.501,4.267-2.92Z"/><path class="l" d="M198.459,232.708c.246-.282.464-.578.646-.883,1.27-2.16.36-4.42-1.15-6.43-1.573-2.094-3.407-3.548-5.591-5.062-3.616.764-10.628,1.609-15.021.338-.738,1.505-.778,3.405-.518,4.655.47,2.23,1.81,3.62,3.08,4.57,2.22,1.68,5.43,3.45,7.66,4.45,1.65.74,5.15.92,6.95.65,1.44-.217,2.932-1.127,3.944-2.287Z"/><path class="k" d="M150.391,172.749c.069,2.384.51,4.487,1.589,6.606,1.913,3.777,3.743,5.647,7.958,7.894,3.74,1.994,6.675,3.503,10.514,5.292,4.681,2.181,4.856,6.661,4.708,8.903-.409,6.194-.54,10.527-.695,15.249-.067,2.557,1.279,3.482,2.695,3.922,4.679,1.442,12.533.364,15.907-.441.461-.108.922-.5,1.246-.844.422-.441.991-1.167,1.069-1.776.202-1.695.369-3.126.52-4.432,5.822-.008,10.067.083,12.708-.064,2.569-.143,4.84-2.52,5.23-5.06,0,0,.29-1.98.31-2.1.84-6.54,1.26-12.28,1.68-19.25.2-3.46.33-7.11-1.24-10.19-1.14-2.21-2.94-4.08-5.04-5.43l-59.16,1.72Z"/><path class="h" d="M155.457,125.031c-3.096,1.873-4.728,3.619-7.12,7.605-3.81,6.347-5.158,14.614-5.306,22.278-.041,2.105.225,4.836.62,6.905.933,4.817,3.915,8.071,8.661,10.91,2.906,1.741,6.964,2.45,9.779,3.369l31.487-11.047,11.733-25.215c-3.584-8-9.069-15.573-15.671-20.615l-5.839-2.851-20.278,5.056-8.065,3.604Z"/><path class="i" d="M178.233,83.149c-7.073-3.36-15.807-2.359-22.713,2.218-8.214,5.442-8.523,16.071-5.578,23.684-1.394.829-2.426,2.291-2.581,3.944-.225,2.386,1.173,4.896,3.185,6.307,2.131,1.494,5.063,2.203,7.563,1.917,6.121,4.328,14.853,4.742,21.396.982,2.01-1.155,3.8-2.677,5.301-4.441,7.095-8.34,6.968-21.939-.452-30.068-1.799-1.97-3.876-3.476-6.121-4.543Z"/><path class="l" d="M205.313,172.096c-7.712,4.459-18.492,10.63-23.619,13.673-.626.372-1.394.376-2.022.008-3.87-2.264-12.997-7.5-16.595-9.621,0,0,10.695-6.074,20.186-11.465.383-3.794.721-7.147.721-7.147.064-.636.426-1.202.978-1.524,7.39-4.319,19.417-11.199,26.659-15.412,1.412-.821,3.155.306,2.99,1.931-.829,8.211-1.657,16.422-2.48,24.634-.064.634-.419,1.196-.968,1.519-1.523.897-3.55,2.074-5.85,3.404Z"/><path class="m" d="M177.687,108.541c.011.145.13,1.598,1.26,2.364.741.502,1.471.366,1.7.319.177-.036,1.324-.294,1.826-1.526.476-1.167.21-2.811-.832-3.702-1.08-.923-2.471-.642-3.24.237-.693.792-.757,1.569-.715,2.309Z"/><path class="m" d="M165.401,111.84c.011.145.13,1.598,1.335,2.357.79.498,1.572.357,1.818.309.189-.037,1.419-.303,1.964-1.538.516-1.171.241-2.814-.868-3.699-1.15-.917-2.641-.628-3.469.256-.746.796-.819,1.575-.779,2.315Z"/><path class="i" d="M175.496,166.689c-.289-.428-.632-.826-1.025-1.184-2.702-2.465-8.025-2.939-10.291.281-1.674,2.379-2.641,4.989-2.741,8.187-.01.306-.087.727.378,1.193.93.689,2.889,2,5.75,2.417,1.897.276,3.172.074,4.792-.917,4.541-2.778,5.098-7.07,3.137-9.977Z"/><path class="m" d="M148.668,95.749c.834-4.045,2.952-7.798,6.852-10.382,9.098-6.029,21.368-5.854,28.834,2.325,2.057,2.254,3.554,4.928,4.492,7.795-.975,1.797-2.98,2.418-4.861,2.339-1.789-.075-3.55-.68-5.24-1.227-1.228-.397-2.635-1.195-3.965-.954-2.41.438-4.945,3.349-6.998,4.653-4.44,2.821-9.26,5.395-14.207,7.212l-1.611.841c-.715.083-1.404.328-2.02.701-1.547-3.998-2.196-8.829-1.274-13.302Z"/></g></svg>