<svg width="160" height="160" viewBox="0 0 160 160" fill="none" xmlns="http://www.w3.org/2000/svg">
<path d="M15.835 17.585H144.165V142.415H15.835V17.585Z" fill="#0C0824"/>
<path d="M15.835 17.585H144.165V142.415H15.835V17.585ZM10 148.25H150V11.75H10V148.25ZM104.385 67.75C99.775 67.75 98.2 70.085 98.2 72.01C98.2 74.11 99.25 75.57 105.435 78.775C114.595 83.21 117.435 87.465 117.435 93.71C117.435 103.045 110.32 108.06 100.695 108.06C96.5642 108.213 92.4586 107.355 88.735 105.56C88.325 105.385 88.27 105.095 88.27 104.625V96.04C88.27 95.455 88.56 95.28 88.97 95.575C92.467 97.8237 96.5374 99.0179 100.695 99.015C105.305 99.015 107.23 97.09 107.23 94.465C107.23 92.365 105.89 90.5 99.995 87.465C91.71 83.5 88.27 79.465 88.27 72.765C88.27 65.24 94.16 59 104.37 59C107.924 58.8474 111.473 59.4032 114.81 60.635C115.002 60.7597 115.158 60.9334 115.26 61.1382C115.363 61.3429 115.41 61.5714 115.395 61.8V69.8C115.395 70.265 115.105 70.56 114.52 70.385C111.436 68.6095 107.928 67.7024 104.37 67.76L104.385 67.75ZM54.215 74.69C55.555 74.805 56.605 74.805 58.94 74.805C65.765 74.805 72.18 72.415 72.18 63.14C72.18 55.73 67.57 52 59.815 52C57.48 52 55.265 52.115 54.215 52.175V74.69ZM43.83 43.69C43.83 43.28 44.645 42.99 45.115 42.99C50.129 42.7851 55.1468 42.6884 60.165 42.7C76.325 42.7 82.625 51.565 82.625 62.885C82.625 77.7 71.89 84.06 58.71 84.06C56.495 84.06 55.735 83.945 54.16 83.945V106.345C54.16 106.81 53.985 107.045 53.46 107.045H44.535C44.07 107.045 43.835 106.87 43.835 106.345V43.715L43.83 43.69Z" fill="#31C5F0"/>
</svg>
