<svg width="160" height="160" viewBox="0 0 160 160" fill="none" xmlns="http://www.w3.org/2000/svg">
<path d="M144.8 63.4375C144.8 28.4026 115.805 6.46692e-05 80.0378 6.46692e-05C48.1585 -0.0442102 20.9916 22.6504 16.0034 53.4921C11.0147 84.3337 29.6897 114.142 60.0206 123.753V155.539C60.0206 156.722 60.5004 157.857 61.3546 158.693C62.2087 159.53 63.3671 160 64.5751 160H95.3168C96.5247 160 97.6832 159.53 98.5373 158.693C99.3914 157.857 99.8713 156.722 99.8713 155.539V123.775C126.622 115.338 144.769 90.967 144.799 63.438L144.8 63.4375ZM80.0378 84.8735C67.9452 84.8735 58.1425 75.2718 58.1425 63.4266C58.1425 51.5818 67.9452 41.9796 80.0373 41.9796C92.1295 41.9796 101.932 51.5818 101.932 63.4266C101.932 75.2713 92.1295 84.874 80.0373 84.874L80.0378 84.8735Z" fill="#2684FF"/>
<path d="M79.9907 5.89682e-05V42.0015C92.0742 42.0015 101.87 51.6037 101.87 63.4484C101.87 75.2932 92.0742 84.8954 79.9907 84.8954C82.6174 84.8954 85.2185 85.4025 87.6452 86.3879C90.072 87.3733 92.277 88.8175 94.1344 90.6383C95.9917 92.459 97.465 94.6205 98.4702 96.9993C99.4754 99.3782 99.9927 101.928 99.9926 104.503V123.797C130.313 114.185 148.983 84.3666 143.997 53.514C139.013 22.6613 111.858 -0.042226 79.9912 5.89682e-05H79.9907Z" fill="url(#paint0_linear_212_948)"/>
<defs>
<linearGradient id="paint0_linear_212_948" x1="112.349" y1="112.31" x2="112.349" y2="44.9235" gradientUnits="userSpaceOnUse">
<stop offset="0.18" stop-color="#0052CC"/>
<stop offset="1" stop-color="#2684FF"/>
</linearGradient>
</defs>
</svg>
