<svg width="160" height="160" viewBox="0 0 160 160" fill="none" xmlns="http://www.w3.org/2000/svg">
<path d="M80 2.5C37.2812 2.5 2.5 37.25 2.5 80C2.5 122.719 37.2812 157.5 80 157.5C122.719 157.5 157.5 122.719 157.5 80C157.5 37.25 122.719 2.5 80 2.5ZM10.3125 80C10.3125 69.9062 12.4688 60.3125 16.3438 51.6562L49.5938 142.719C26.3437 131.406 10.3125 107.562 10.3125 80ZM80 149.688C73.1562 149.688 66.5625 148.688 60.3125 146.844L81.2188 86.0938L102.625 144.781C102.781 145.125 102.938 145.438 103.125 145.75C95.9062 148.281 88.125 149.688 80 149.688ZM89.5938 47.3438C93.7812 47.125 97.5625 46.6875 97.5625 46.6875C101.312 46.25 100.875 40.7188 97.125 40.9375C97.125 40.9375 85.8438 41.8125 78.5625 41.8125C71.7188 41.8125 60.2188 40.9375 60.2188 40.9375C56.4688 40.7188 56.0312 46.4688 59.7812 46.6875C59.7812 46.6875 63.3438 47.125 67.0938 47.3438L77.9375 77.0938L62.6875 122.812L37.3125 47.3438C41.5 47.125 45.2812 46.6875 45.2812 46.6875C49.0312 46.25 48.5938 40.7188 44.8438 40.9375C44.8438 40.9375 33.5625 41.8125 26.2812 41.8125C24.9688 41.8125 23.4375 41.7812 21.7812 41.7188C34.25 22.8125 55.6562 10.3125 80 10.3125C98.125 10.3125 114.656 17.25 127.062 28.5938C126.75 28.5625 126.469 28.5312 126.156 28.5312C119.313 28.5312 114.469 34.5 114.469 40.9062C114.469 46.6562 117.781 51.5 121.312 57.25C123.969 61.875 127.062 67.8438 127.062 76.4688C127.062 82.4375 124.781 89.3438 121.75 99L114.812 122.219L89.5938 47.3438ZM115.031 140.219L136.312 78.6875C140.281 68.75 141.625 60.8125 141.625 53.7188C141.625 51.1562 141.469 48.7812 141.156 46.5625C146.594 56.5 149.688 67.875 149.688 80C149.688 105.719 135.75 128.156 115.031 140.219Z" fill="#222222"/>
</svg>
