<svg width="160" height="160" viewBox="0 0 160 160" fill="none" xmlns="http://www.w3.org/2000/svg">
<g clip-path="url(#clip0_212_896)">
<rect width="160" height="160" fill="#F361F6"/>
<path d="M0 0V160H160V0H0ZM67.9806 114.852L53.1875 84.3656L38.9147 114.779H25.0041L45.4753 75.78L25.6825 36.3438H40.1206L54.1338 66.3209L68.0294 36.2709H81.5825L61.7734 74.5428L82.7522 114.852H67.9803H67.9806ZM131.405 111.651C125.293 114.561 118.89 115.871 112.778 115.871C96.9897 115.944 85.7119 106.194 85.7119 86.4028C86.2256 66.1291 99.7344 54.8162 118.672 56.3528V36.3438H131.623V103.72C131.65 111.755 132.537 110.983 131.405 111.651ZM118.672 67.7763V103.792C105.888 107.11 98.8203 99.33 98.8813 85.8206C98.9294 71.9663 108.032 64.7759 118.672 67.7763Z" fill="#470137"/>
</g>
<defs>
<clipPath id="clip0_212_896">
<rect width="160" height="160" fill="white"/>
</clipPath>
</defs>
</svg>
